<svg viewBox="0 0 20 20" xmlns="http://www.w3.org/2000/svg" fill="none"><g id="SVGRepo_bgCarrier" stroke-width="0"></g><g id="SVGRepo_tracerCarrier" stroke-linecap="round" stroke-linejoin="round"></g><g id="SVGRepo_iconCarrier"> <path fill="#FFFFFF" fill-rule="evenodd" d="M19 4a1 1 0 01-1 1H7a1 1 0 010-2h11a1 1 0 011 1zM4 4a1 1 0 01-1 1H2a1 1 0 010-2h1a1 1 0 011 1zm15 6a1 1 0 01-1 1H7a1 1 0 110-2h11a1 1 0 011 1zM4 10a1 1 0 01-1 1H2a1 1 0 110-2h1a1 1 0 011 1zm14 7a1 1 0 100-2H7a1 1 0 100 2h11zM3 17a1 1 0 100-2H2a1 1 0 100 2h1z"></path> </g></svg>